<svg width="32.000000" height="32.000000" viewBox="0 0 32 32" fill="none" xmlns="http://www.w3.org/2000/svg" xmlns:xlink="http://www.w3.org/1999/xlink">
	<desc>
			Created with Pixso.
	</desc>
	<defs>
		<clipPath id="clip2_669">
			<rect id="Frame" width="32.000000" height="32.000000" fill="white" fill-opacity="0"/>
		</clipPath>
	</defs>
	<rect id="Frame" width="32.000000" height="32.000000" fill="#FFFFFF" fill-opacity="0"/>
	<g clip-path="url(#clip2_669)">
		<path id="Vector" d="M25.05 9.33C25.42 9.33 25.79 9.41 26.13 9.56C26.47 9.71 26.78 9.93 27.03 10.21C27.28 10.48 27.46 10.81 27.58 11.16C27.7 11.52 27.74 11.89 27.7 12.26L26.9 20.26C26.84 20.92 26.53 21.53 26.04 21.97C25.55 22.42 24.91 22.66 24.25 22.66L11.52 22.66C10.9 22.66 10.3 22.45 9.82 22.06C9.35 21.67 9.02 21.12 8.9 20.52L6.66 9.33L25.05 9.33Z" stroke="#454F5B" stroke-opacity="1.000000" stroke-width="2.000000" stroke-linejoin="round"/>
		<path id="Vector" d="M6.66 9.33L5.58 5C5.51 4.72 5.34 4.46 5.11 4.28C4.87 4.09 4.59 4 4.29 4L2.66 " stroke="#454F5B" stroke-opacity="1.000000" stroke-width="2.000000" stroke-linejoin="round" stroke-linecap="round"/>
		<path id="Vector" d="M10.66 28L13.33 " stroke="#454F5B" stroke-opacity="1.000000" stroke-width="2.000000" stroke-linejoin="round" stroke-linecap="round"/>
		<path id="Vector" d="M21.33 28L23.99 " stroke="#454F5B" stroke-opacity="1.000000" stroke-width="2.000000" stroke-linejoin="round" stroke-linecap="round"/>
	</g>
</svg>
