<svg width="51.000000" height="42.000000" viewBox="0 0 51 42" fill="none" xmlns="http://www.w3.org/2000/svg" xmlns:xlink="http://www.w3.org/1999/xlink">
	<desc>
			Created with Pixso.
	</desc>
	<defs/>
	<path id="G" d="M18.34 13.07L22.4 13.07L22.4 21.37C20.12 23.92 16.86 25.2 12.6 25.2C9.01 25.2 6.01 24 3.6 21.62C1.2 19.23 0 16.25 0 12.67C0 9.09 1.21 6.09 3.65 3.67C6.13 1.22 9.11 0 12.6 0C16.1 0 19 1.01 21.31 3.03L19.13 6.16C17.45 4.73 15.39 4.02 12.95 4.02C10.48 4.02 8.4 4.83 6.72 6.46C5.07 8.05 4.25 10.12 4.25 12.67C4.25 15.22 5.04 17.29 6.62 18.88C8.24 20.44 10.23 21.22 12.6 21.22C14.91 21.22 16.82 20.72 18.34 19.73L18.34 13.07Z" fill="#161C24" fill-opacity="1.000000" fill-rule="nonzero"/>
	<line id="Line 1" x1="27.100037" y1="0.000000" x2="27.100037" y2="16.800049" stroke="#161C24" stroke-opacity="1.000000" stroke-width="1.000000"/>
	<line id="Line 2" x1="27.100037" y1="16.800049" x2="27.100037" y2="33.600098" stroke="#4295E4" stroke-opacity="1.000000" stroke-width="1.000000"/>
	<path id="s" d="M41.41 42C37.48 42 33.94 40.77 30.8 38.32L33.29 34.32C36.08 36.46 38.84 37.53 41.55 37.53C42.68 37.53 43.58 37.27 44.23 36.75C44.93 36.18 45.28 35.48 45.28 34.65C45.28 33.42 43.67 32.33 40.43 31.36C40.34 31.32 40.23 31.28 40.1 31.23C40.02 31.19 39.95 31.17 39.91 31.17C34.84 29.81 32.3 27.51 32.3 24.28C32.3 22 33.16 20.19 34.86 18.83C36.61 17.47 38.9 16.79 41.74 16.79C44.54 16.79 47.2 17.63 49.74 19.29L47.84 23.1C45.87 21.78 43.71 21.13 41.35 21.13C38.6 21.13 37.22 22 37.22 23.75C37.22 24.5 37.48 25.04 38.01 25.39C38.57 25.7 39.49 26 40.76 26.31C42.68 26.84 44.3 27.36 45.61 27.89C46.48 28.28 47.25 28.7 47.9 29.13C49.56 30.27 50.4 32 50.4 34.32C50.4 36.59 49.54 38.45 47.84 39.9C46.18 41.3 44.04 42 41.41 42Z" fill="#4295E4" fill-opacity="1.000000" fill-rule="nonzero"/>
</svg>
