<svg width="20.000000" height="20.000000" viewBox="0 0 20 20" fill="none" xmlns="http://www.w3.org/2000/svg" xmlns:xlink="http://www.w3.org/1999/xlink">
	<desc>
			Created with Pixso.
	</desc>
	<defs>
		<clipPath id="clip2_678">
			<rect id="phone-call 1" width="20.000000" height="20.000000" fill="white" fill-opacity="0"/>
		</clipPath>
	</defs>
	<rect id="phone-call 1" width="20.000000" height="20.000000" fill="#FFFFFF" fill-opacity="0"/>
	<g clip-path="url(#clip2_678)">
		<path id="Vector" d="M18.77 14.12C18.72 14.08 15 11.4 13.97 11.59C13.49 11.68 13.21 12.01 12.65 12.67C12.56 12.78 12.34 13.04 12.17 13.22C11.82 13.11 11.48 12.97 11.14 12.8C9.42 11.96 8.03 10.57 7.19 8.85C7.03 8.52 6.89 8.17 6.77 7.82C6.95 7.65 7.21 7.43 7.32 7.34C7.98 6.79 8.32 6.51 8.4 6.02C8.58 5.01 5.9 1.26 5.87 1.23C5.75 1.05 5.59 0.91 5.41 0.8C5.22 0.7 5.02 0.64 4.81 0.62C3.72 0.62 0.62 4.64 0.62 5.32C0.62 5.36 0.68 9.36 5.61 14.38C10.63 19.31 14.63 19.37 14.67 19.37C15.35 19.37 19.37 16.27 19.37 15.18C19.35 14.97 19.29 14.77 19.19 14.58C19.08 14.4 18.94 14.24 18.77 14.12Z" fill="#4295E4" fill-opacity="1.000000" fill-rule="nonzero"/>
	</g>
</svg>
