<svg width="106.000000" height="88.000000" viewBox="0 0 106 88" fill="none" xmlns="http://www.w3.org/2000/svg" xmlns:xlink="http://www.w3.org/1999/xlink">
	<desc>
			Created with Pixso.
	</desc>
	<defs/>
	<path id="G" d="M38.43 27.38L46.93 27.38L46.93 44.78C42.16 50.12 35.32 52.8 26.41 52.8C18.89 52.8 12.6 50.3 7.56 45.3C2.52 40.3 0 34.05 0 26.55C0 19.05 2.55 12.77 7.66 7.7C12.84 2.56 19.09 0 26.41 0C33.74 0 39.81 2.11 44.65 6.35L40.09 12.91C36.57 9.92 32.25 8.43 27.14 8.43C21.96 8.43 17.61 10.13 14.09 13.53C10.63 16.87 8.91 21.21 8.91 26.55C8.91 31.9 10.56 36.24 13.88 39.57C17.26 42.83 21.44 44.46 26.41 44.46C31.25 44.46 35.26 43.42 38.43 41.34L38.43 27.38Z" fill="#FFFFFF" fill-opacity="1.000000" fill-rule="nonzero"/>
	<line id="Line 1" x1="56.233398" y1="0.000000" x2="56.233398" y2="35.200012" stroke="#FFFFFF" stroke-opacity="1.000000" stroke-width="1.000000"/>
	<line id="Line 2" x1="56.233398" y1="35.199951" x2="56.233398" y2="70.399963" stroke="#4295E4" stroke-opacity="1.000000" stroke-width="1.000000"/>
	<path id="s" d="M86.78 87.99C78.54 87.99 71.12 85.43 64.53 80.29L69.75 71.91C75.61 76.4 81.38 78.65 87.05 78.65C89.43 78.65 91.31 78.09 92.68 76.99C94.15 75.8 94.88 74.34 94.88 72.6C94.88 70.03 91.49 67.74 84.72 65.72C84.54 65.63 84.31 65.54 84.03 65.44C83.85 65.35 83.71 65.31 83.62 65.31C73 62.47 67.69 57.65 67.69 50.87C67.69 46.1 69.47 42.3 73.04 39.46C76.71 36.62 81.51 35.2 87.47 35.2C93.33 35.2 98.91 36.94 104.22 40.42L100.24 48.4C96.12 45.65 91.59 44.27 86.64 44.27C80.87 44.27 77.99 46.1 77.99 49.77C77.99 51.33 78.54 52.47 79.64 53.21C80.83 53.85 82.75 54.49 85.41 55.13C89.43 56.23 92.82 57.33 95.57 58.43C97.4 59.26 99 60.13 100.38 61.04C103.86 63.43 105.6 67.05 105.6 71.91C105.6 76.67 103.81 80.57 100.24 83.59C96.76 86.53 92.27 87.99 86.78 87.99Z" fill="#4295E4" fill-opacity="1.000000" fill-rule="nonzero"/>
</svg>
