<svg width="27.000000" height="15.000000" viewBox="0 0 27 15" fill="none" xmlns="http://www.w3.org/2000/svg" xmlns:xlink="http://www.w3.org/1999/xlink">
	<desc>
			Created with Pixso.
	</desc>
	<defs/>
	<path id="Vector" d="M25.4 0.44C25.58 -0.15 25.4 -0.59 24.54 -0.59L21.69 -0.59C20.97 -0.59 20.64 -0.21 20.46 0.2C20.46 0.2 19.01 3.66 16.96 5.91C16.3 6.57 16 6.77 15.64 6.77C15.45 6.77 15.18 6.57 15.18 5.97L15.18 0.44C15.18 -0.27 14.98 -0.59 14.38 -0.59L9.91 -0.59C9.46 -0.59 9.18 -0.26 9.18 0.05C9.18 0.73 10.21 0.88 10.31 2.78L10.31 6.89C10.31 7.79 10.15 7.96 9.79 7.96C8.82 7.96 6.48 4.48 5.09 0.5C4.82 -0.28 4.54 -0.59 3.82 -0.59L0.97 -0.59C0.16 -0.59 0 -0.21 0 0.2C0 0.94 0.96 4.61 4.49 9.47C6.84 12.78 10.15 14.58 13.16 14.58C14.97 14.58 15.19 14.18 15.19 13.49L15.19 10.99C15.19 10.19 15.36 10.03 15.94 10.03C16.36 10.03 17.08 10.24 18.77 11.83C20.7 13.73 21.01 14.58 22.1 14.58L24.94 14.58C25.76 14.58 26.16 14.18 25.93 13.39C25.67 12.61 24.75 11.47 23.53 10.12C22.87 9.35 21.87 8.52 21.57 8.1C21.15 7.57 21.27 7.33 21.57 6.86C21.57 6.86 25.04 2.07 25.4 0.44L25.4 0.44Z" fill="#FFFFFF" fill-opacity="1.000000" fill-rule="evenodd"/>
</svg>
