<svg width="26.000000" height="26.000000" viewBox="0 0 26 26" fill="none" xmlns="http://www.w3.org/2000/svg" xmlns:xlink="http://www.w3.org/1999/xlink">
	<desc>
			Created with Pixso.
	</desc>
	<defs>
		<clipPath id="clip18_718">
			<rect id="Frame" width="26.000000" height="26.000000" fill="white" fill-opacity="0"/>
		</clipPath>
	</defs>
	<rect id="Frame" width="26.000000" height="26.000000" fill="#FFFFFF" fill-opacity="0"/>
	<g clip-path="url(#clip18_718)">
		<path id="Vector" d="M25.61 5.34C24.7 5.74 23.73 6.02 22.71 6.14C23.76 5.51 24.55 4.51 24.93 3.34C23.94 3.93 22.85 4.35 21.72 4.57C20.96 3.76 19.96 3.22 18.86 3.04C17.76 2.86 16.64 3.04 15.66 3.57C14.68 4.09 13.9 4.93 13.44 5.94C12.98 6.95 12.87 8.09 13.12 9.17C11.12 9.07 9.16 8.55 7.36 7.64C5.57 6.73 3.99 5.46 2.72 3.9C2.29 4.65 2.04 5.51 2.04 6.44C2.04 7.27 2.24 8.09 2.64 8.82C3.03 9.55 3.59 10.18 4.28 10.64C3.48 10.61 2.7 10.4 2 10.01L2 10.07C2 11.24 2.4 12.37 3.14 13.27C3.88 14.17 4.91 14.79 6.05 15.02C5.3 15.22 4.52 15.25 3.77 15.11C4.09 16.11 4.72 16.99 5.56 17.61C6.41 18.24 7.43 18.59 8.48 18.61C6.7 20.01 4.49 20.77 2.21 20.77C1.81 20.77 1.41 20.75 1.01 20.7C3.32 22.18 6 22.97 8.75 22.97C18.03 22.97 23.1 15.28 23.1 8.61C23.1 8.39 23.1 8.17 23.09 7.96C24.08 7.24 24.93 6.36 25.61 5.35L25.61 5.34Z" fill="#FFFFFF" fill-opacity="1.000000" fill-rule="nonzero"/>
	</g>
</svg>
